<svg width="512" height="512" viewBox="0 0 512 512" fill="none" xmlns="http://www.w3.org/2000/svg">
<path d="M512 256C512 397.385 397.385 512 256 512C114.615 512 0 397.385 0 256C0 114.615 114.615 0 256 0C397.385 0 512 114.615 512 256Z" fill="white"/>
<path fill-rule="evenodd" clip-rule="evenodd" d="M506.294 310H5.70543C30.495 425.453 133.14 512 256 512C378.859 512 481.504 425.453 506.294 310ZM510.696 230H1.3038C14.333 100.827 123.392 9.15527e-05 256 9.15527e-05C388.608 9.15527e-05 497.666 100.827 510.696 230ZM0 255.643C-0.000162743 255.762 -0.000244141 255.881 -0.000244141 256C-0.000244141 256.119 -0.000162743 256.238 0 256.357V255.643Z" fill="url(#paint0_linear_103_2)"/>
<path d="M251.371 301.743C292.998 301.743 326.743 267.998 326.743 226.371C326.743 184.745 292.998 151 251.371 151C209.745 151 176 184.745 176 226.371C176 267.998 209.745 301.743 251.371 301.743Z" fill="url(#paint1_radial_103_2)"/>
<path d="M251.371 301.743C292.998 301.743 326.743 267.998 326.743 226.371C326.743 184.745 292.998 151 251.371 151C209.745 151 176 184.745 176 226.371C176 267.998 209.745 301.743 251.371 301.743Z" fill="url(#paint2_radial_103_2)"/>
<path opacity="0.879674" fill-rule="evenodd" clip-rule="evenodd" d="M223.65 199.293C233.068 198.048 232.74 192.903 232.033 186.614C231.325 180.324 225.642 176.191 221.12 176.937C216.599 177.682 211.961 183.563 212.668 189.852C213.376 196.141 214.232 200.539 223.65 199.293Z" fill="url(#paint3_radial_103_2)"/>
<path opacity="0.250372" d="M219.132 187.016C220.495 187.016 221.6 185.585 221.6 183.821C221.6 182.056 220.495 180.626 219.132 180.626C217.768 180.626 216.663 182.056 216.663 183.821C216.663 185.585 217.768 187.016 219.132 187.016Z" fill="white"/>
<path d="M235.059 162.725C236.906 162.847 239.256 163.992 239.935 166.31C240.614 168.627 240.407 170.612 238.554 170.439C227.646 169.426 216.507 171.971 211.4 174.405C209.677 175.226 207.608 175.6 206.799 173.868C205.991 172.136 207.332 171.525 208.669 170.449C213.803 166.318 225.301 162.082 235.059 162.725Z" fill="url(#paint4_linear_103_2)"/>
<path opacity="0.879674" fill-rule="evenodd" clip-rule="evenodd" d="M281.332 176.937C276.81 176.191 271.127 180.324 270.419 186.614L270.337 187.363C269.702 193.308 269.761 198.098 278.802 199.293C288.22 200.539 289.077 196.141 289.784 189.852C290.491 183.563 285.853 177.682 281.332 176.937Z" fill="url(#paint5_radial_103_2)"/>
<path opacity="0.250372" d="M276.35 187.016C277.713 187.016 278.819 185.585 278.819 183.821C278.819 182.056 277.713 180.626 276.35 180.626C274.986 180.626 273.881 182.056 273.881 183.821C273.881 185.585 274.986 187.016 276.35 187.016Z" fill="white"/>
<path opacity="0.879674" fill-rule="evenodd" clip-rule="evenodd" d="M267.49 162.682C265.645 162.802 263.298 163.928 262.619 166.203L262.559 166.412C261.954 168.595 262.203 170.421 263.997 170.256C274.782 169.268 285.793 171.703 290.961 174.069L291.116 174.14C292.836 174.946 294.902 175.312 295.71 173.612C296.504 171.941 295.226 171.334 293.915 170.312L293.844 170.256C288.717 166.203 277.236 162.048 267.49 162.682Z" fill="url(#paint6_linear_103_2)"/>
<path opacity="0.879674" fill-rule="evenodd" clip-rule="evenodd" d="M251.226 214.027C258.367 214.027 264.613 211.613 266.836 209.431C267.423 208.856 267.491 208.19 267.491 207.825C267.491 206.076 260.251 205.604 251.226 205.604C242.201 205.604 234.961 206.076 234.961 207.825C234.961 208.216 234.945 208.805 235.601 209.431C237.882 211.607 244.218 214.027 251.226 214.027Z" fill="url(#paint7_linear_103_2)"/>
<path fill-rule="evenodd" clip-rule="evenodd" d="M223.037 301.431C222.332 301.281 221.675 300.904 221.18 300.326C206.473 285.874 197.161 274.004 193.246 264.717L192.907 263.908L192.66 263.311C189.988 256.815 187.051 248.327 188.632 240.881C191.657 226.627 205.557 217.508 219.677 220.513C227.495 222.177 233.742 227.21 237.247 233.791L237.352 233.99C243.248 229.308 251.076 227.197 258.974 228.878C273.094 231.883 282.088 245.875 279.062 260.129C277.449 267.728 271.096 274.404 265.959 279.277L265.803 279.424L265.165 280.025C257.816 286.915 244.488 293.966 225.182 301.178C224.495 301.505 223.742 301.581 223.037 301.431Z" fill="url(#paint8_radial_103_2)"/>
<path d="M222.472 283.154C238.673 283.154 251.807 272.556 251.807 259.482C251.807 246.409 238.673 235.811 222.472 235.811C206.27 235.811 193.136 246.409 193.136 259.482C193.136 272.556 206.27 283.154 222.472 283.154Z" fill="url(#paint9_radial_103_2)"/>
<path d="M265.394 297.386C277.123 297.386 286.631 289.714 286.631 280.25C286.631 270.785 277.123 263.113 265.394 263.113C253.665 263.113 244.157 270.785 244.157 280.25C244.157 289.714 253.665 297.386 265.394 297.386Z" fill="url(#paint10_radial_103_2)"/>
<path fill-rule="evenodd" clip-rule="evenodd" d="M191.88 224.54C194.992 225.805 201.752 233.627 209.651 234.602C217.551 235.577 227.909 231.168 227.909 231.168C227.909 231.168 231.132 230.587 231.132 234.602C231.132 237.279 228.738 239.604 223.951 241.577C229.259 240.37 233.841 240.37 237.696 241.577C243.479 243.389 246.214 250.274 243.479 255.485C240.744 260.697 236.627 267.406 222.328 269.751C208.028 272.097 187.205 267.648 183.318 259.315C179.432 250.981 173.972 231.777 177.345 226.804C180.717 221.83 188.768 223.274 191.88 224.54Z" fill="url(#paint11_radial_103_2)"/>
<path fill-rule="evenodd" clip-rule="evenodd" d="M313.827 226.923C308.246 237.75 305.323 242.627 302.799 245.539C294.593 255.007 281.841 255.904 278.29 255.904C269.177 255.904 260.069 252.478 260.069 252.478C260.069 252.478 256.852 251.898 256.852 255.904C256.852 258.574 259.241 260.894 264.019 262.863C260.376 263.462 256.744 264.406 253.121 265.698C247.687 267.634 245.681 275.576 249.221 281.584C252.76 287.592 264.332 290.125 272.432 290.125C280.532 290.125 295.531 289.854 305.162 280.063C314.793 270.273 322.158 256.299 324.4 245.539C326.362 236.122 326.362 229.762 324.4 226.18C322.475 222.667 316.846 221.068 313.827 226.923Z" fill="url(#paint12_radial_103_2)"/>
<path d="M123 301C140.121 301 154 287.121 154 270C154 252.879 140.121 239 123 239C105.879 239 92 252.879 92 270C92 287.121 105.879 301 123 301Z" fill="url(#paint13_radial_103_2)"/>
<path fill-rule="evenodd" clip-rule="evenodd" d="M122.821 287.74C122.528 287.74 122.236 287.646 121.991 287.459C114.936 282.973 110.241 279.056 107.905 275.706L107.702 275.414L107.554 275.198C105.946 272.85 104.065 269.735 104.065 266.651C104.065 260.749 108.814 255.963 114.671 255.963C117.914 255.963 120.817 257.431 122.762 259.742L122.821 259.813C124.766 257.46 127.695 255.963 130.971 255.963C136.828 255.963 141.576 260.749 141.576 266.651C141.576 269.798 139.617 272.979 137.989 275.343L137.94 275.414L137.737 275.706C135.401 279.056 130.705 282.973 123.651 287.459C123.406 287.646 123.113 287.74 122.821 287.74Z" fill="white"/>
<path d="M39.5 301C56.3447 301 70 287.121 70 270C70 252.879 56.3447 239 39.5 239C22.6553 239 9 252.879 9 270C9 287.121 22.6553 301 39.5 301Z" fill="url(#paint14_radial_103_2)"/>
<path fill-rule="evenodd" clip-rule="evenodd" d="M38.7462 251.759C38.5907 251.835 38.4934 251.996 38.4975 252.171C38.558 254.715 38.5883 256.189 38.5883 256.594V257.74L38.3996 258.141C38.1878 258.592 38.0784 258.778 36.5267 261.341C35.919 262.344 35.1159 263.719 34.7419 264.396C34.2962 265.204 34.0629 266.114 34.0646 267.04L34.0867 279.405C34.0894 280.921 35.2989 282.148 36.79 282.148H50.0947L50.5797 281.906C51.6688 281.363 52.4685 280.098 52.4743 278.911C52.4766 278.453 52.4622 278.393 52.2335 277.914C52.0997 277.634 51.9973 277.4 52.0058 277.395C52.0143 277.39 52.2654 277.276 52.5637 277.143C53.8453 276.569 54.5995 275.657 54.6541 274.615C54.683 274.064 54.5562 273.684 54.1281 273.037C53.9555 272.775 53.8143 272.546 53.8143 272.528C53.8143 272.509 53.8561 272.494 53.9071 272.494C53.9583 272.494 54.208 272.384 54.4621 272.25C55.623 271.639 56.2877 270.479 56.0993 269.392C55.9738 268.668 55.5986 268.093 54.765 267.345L54.4919 267.1L54.8057 266.759C55.2105 266.319 55.4562 265.957 55.6175 265.562C55.7235 265.303 55.7471 265.137 55.7482 264.642C55.7503 263.698 55.5357 263.066 55.0277 262.519C54.6874 262.153 54.3078 261.915 53.7713 261.73L53.3305 261.579C47.2781 261.545 44.252 261.52 44.2521 261.505C44.2524 261.483 44.3034 261.039 44.3656 260.519C44.5081 259.328 44.5236 257.155 44.3953 256.365C44.0298 254.115 42.8522 252.352 41.3028 251.736C40.9149 251.582 40.7874 251.56 40.182 251.546C39.8064 251.537 39.3871 251.553 39.2504 251.582C39.1136 251.611 38.8867 251.691 38.7462 251.759ZM26.1599 265.087H31.3147C31.7691 265.087 32.1375 265.462 32.1375 265.924V282.484C32.1375 282.945 31.7691 283.32 31.3147 283.32H26.1599C25.7055 283.32 25.3372 282.945 25.3372 282.484V265.924C25.3372 265.462 25.7055 265.087 26.1599 265.087Z" fill="white"/>
<path d="M467.5 301C484.345 301 498 287.121 498 270C498 252.879 484.345 239 467.5 239C450.655 239 437 252.879 437 270C437 287.121 450.655 301 467.5 301Z" fill="url(#paint15_radial_103_2)"/>
<path d="M467.5 301C484.345 301 498 287.121 498 270C498 252.879 484.345 239 467.5 239C450.655 239 437 252.879 437 270C437 287.121 450.655 301 467.5 301Z" fill="url(#paint16_radial_103_2)"/>
<path opacity="0.879674" fill-rule="evenodd" clip-rule="evenodd" d="M466.954 276.06C473.153 276.06 479.851 276.664 487.046 277.871C486.144 287.944 477.789 295.836 467.615 295.836C457.49 295.836 449.166 288.02 448.196 278.016C454.259 276.712 460.511 276.06 466.954 276.06Z" fill="url(#paint17_linear_103_2)"/>
<path d="M467.568 285.757C473.504 285.757 478.985 286.463 483.406 287.654C479.86 292.612 474.102 295.836 467.601 295.836C461.093 295.836 455.329 292.606 451.785 287.64C456.196 286.457 461.656 285.757 467.568 285.757Z" fill="url(#paint18_linear_103_2)"/>
<g filter="url(#filter0_i_103_2)">
<path d="M467.568 285.757C473.504 285.757 478.985 286.463 483.406 287.654C479.86 292.612 474.102 295.836 467.601 295.836C461.093 295.836 455.329 292.606 451.785 287.64C456.196 286.457 461.656 285.757 467.568 285.757Z" fill="black"/>
</g>
<g opacity="0.397252" filter="url(#filter1_f_103_2)">
<path d="M467.618 292.04C471.675 292.04 474.963 290.891 474.963 289.472C474.963 288.054 471.675 286.904 467.618 286.904C463.561 286.904 460.272 288.054 460.272 289.472C460.272 290.891 463.561 292.04 467.618 292.04Z" fill="#FF8989"/>
</g>
<path d="M446.572 266.678C446.777 265.931 447.536 265.49 448.273 265.686L448.295 265.692L458.426 268.56C459.78 268.943 459.788 270.879 458.459 271.285L458.418 271.297L448.394 274.071C447.648 274.277 446.88 273.831 446.676 273.075C446.475 272.326 446.904 271.553 447.636 271.338L447.658 271.332L452.788 269.912L447.544 268.427C446.807 268.219 446.373 267.449 446.566 266.701L446.572 266.678Z" fill="#251C0C"/>
<path d="M488.428 266.678C488.223 265.931 487.464 265.49 486.727 265.686L486.705 265.692L476.574 268.56C475.22 268.943 475.212 270.879 476.541 271.285L476.582 271.297L486.606 274.071C487.352 274.277 488.12 273.831 488.324 273.075C488.525 272.326 488.096 271.553 487.364 271.338L487.342 271.332L482.212 269.912L487.456 268.427C488.193 268.219 488.627 267.449 488.434 266.701L488.428 266.678Z" fill="#251C0C"/>
<path d="M379 301C396.121 301 410 287.121 410 270C410 252.879 396.121 239 379 239C361.879 239 348 252.879 348 270C348 287.121 361.879 301 379 301Z" fill="url(#paint19_radial_103_2)"/>
<path d="M379 301C396.121 301 410 287.121 410 270C410 252.879 396.121 239 379 239C361.879 239 348 252.879 348 270C348 287.121 361.879 301 379 301Z" fill="url(#paint20_radial_103_2)"/>
<path opacity="0.879674" d="M379.956 295.266C385.465 295.266 389.931 289.53 389.931 282.454C389.931 275.378 385.465 269.642 379.956 269.642C374.447 269.642 369.981 275.378 369.981 282.454C369.981 289.53 374.447 295.266 379.956 295.266Z" fill="url(#paint21_linear_103_2)"/>
<path opacity="0.879674" d="M379.956 294.669C385.135 294.669 389.333 289.16 389.333 282.364C389.333 275.569 385.135 270.06 379.956 270.06C374.777 270.06 370.578 275.569 370.578 282.364C370.578 289.16 374.777 294.669 379.956 294.669Z" fill="url(#paint22_linear_103_2)"/>
<path opacity="0.879674" fill-rule="evenodd" clip-rule="evenodd" d="M366.147 266.341C368.034 266.603 370.135 263.487 370.517 259.965C370.9 256.444 369.42 253.851 367.532 253.59C365.644 253.328 363.126 256.444 362.743 259.965C362.361 263.487 364.259 266.079 366.147 266.341Z" fill="url(#paint23_linear_103_2)"/>
<path opacity="0.879674" fill-rule="evenodd" clip-rule="evenodd" d="M393.645 266.341C391.758 266.603 389.657 263.487 389.274 259.965C388.892 256.444 390.372 253.851 392.26 253.59C394.147 253.328 396.666 256.444 397.049 259.965C397.431 263.487 395.533 266.079 393.645 266.341Z" fill="url(#paint24_linear_103_2)"/>
<path d="M361.823 245.505C364.764 241.921 368.389 241.489 372.049 244.294C372.677 244.776 372.794 245.673 372.311 246.299C371.833 246.919 370.946 247.04 370.319 246.575L370.3 246.561C367.874 244.702 366.006 244.924 364.044 247.315C363.542 247.927 362.638 248.017 362.025 247.517C361.412 247.017 361.322 246.116 361.823 245.505Z" fill="#251C0C"/>
<path d="M398.088 245.505C395.148 241.921 391.522 241.489 387.863 244.294C387.235 244.776 387.117 245.673 387.6 246.299C388.078 246.919 388.965 247.04 389.592 246.575L389.611 246.561C392.037 244.702 393.906 244.924 395.868 247.315C396.369 247.927 397.273 248.017 397.886 247.517C398.499 247.017 398.59 246.116 398.088 245.505Z" fill="#251C0C"/>
<defs>
<filter id="filter0_i_103_2" x="451.785" y="285.757" width="31.6208" height="11.0787" filterUnits="userSpaceOnUse" color-interpolation-filters="sRGB">
<feFlood flood-opacity="0" result="BackgroundImageFix"/>
<feBlend mode="normal" in="SourceGraphic" in2="BackgroundImageFix" result="shape"/>
<feColorMatrix in="SourceAlpha" type="matrix" values="0 0 0 0 0 0 0 0 0 0 0 0 0 0 0 0 0 0 127 0" result="hardAlpha"/>
<feOffset dy="1"/>
<feGaussianBlur stdDeviation="10.5"/>
<feComposite in2="hardAlpha" operator="arithmetic" k2="-1" k3="1"/>
<feColorMatrix type="matrix" values="0 0 0 0 0 0 0 0 0 0 0 0 0 0 0 0 0 0 0.5 0"/>
<feBlend mode="normal" in2="shape" result="effect1_innerShadow_103_2"/>
</filter>
<filter id="filter1_f_103_2" x="450.272" y="276.904" width="34.6917" height="25.1368" filterUnits="userSpaceOnUse" color-interpolation-filters="sRGB">
<feFlood flood-opacity="0" result="BackgroundImageFix"/>
<feBlend mode="normal" in="SourceGraphic" in2="BackgroundImageFix" result="shape"/>
<feGaussianBlur stdDeviation="5" result="effect1_foregroundBlur_103_2"/>
</filter>
<linearGradient id="paint0_linear_103_2" x1="426.5" y1="63.5" x2="61.5" y2="436" gradientUnits="userSpaceOnUse">
<stop stop-color="#5CAEE9"/>
<stop offset="1" stop-color="#E9033A" stop-opacity="0.51"/>
</linearGradient>
<radialGradient id="paint1_radial_103_2" cx="0" cy="0" r="1" gradientUnits="userSpaceOnUse" gradientTransform="translate(7713.13 2924.62) scale(8995.71)">
<stop stop-color="#FDE990"/>
<stop offset="1" stop-color="#FACE57"/>
</radialGradient>
<radialGradient id="paint2_radial_103_2" cx="0" cy="0" r="1" gradientUnits="userSpaceOnUse" gradientTransform="translate(7226 -7249.45) rotate(-88.8798) scale(7532.34 7705.48)">
<stop stop-color="#D27C12" stop-opacity="0.186216"/>
<stop offset="0.737255" stop-color="#D27C12" stop-opacity="0"/>
<stop offset="1" stop-color="#D27C12" stop-opacity="0.186926"/>
</radialGradient>
<radialGradient id="paint3_radial_103_2" cx="0" cy="0" r="1" gradientUnits="userSpaceOnUse" gradientTransform="translate(-903.299 934.559) rotate(102.049) scale(1438.73 1873.21)">
<stop stop-color="#402B1A"/>
<stop offset="1"/>
</radialGradient>
<linearGradient id="paint4_linear_103_2" x1="1754.01" y1="541.351" x2="1305.9" y2="2338.63" gradientUnits="userSpaceOnUse">
<stop stop-color="#E58200"/>
<stop offset="1" stop-color="#B15900"/>
</linearGradient>
<radialGradient id="paint5_radial_103_2" cx="0" cy="0" r="1" gradientUnits="userSpaceOnUse" gradientTransform="translate(-913.82 983.849) rotate(102.049) scale(1438.73 1873.21)">
<stop stop-color="#402B1A"/>
<stop offset="1"/>
</radialGradient>
<linearGradient id="paint6_linear_103_2" x1="1946.86" y1="162.618" x2="1946.86" y2="1382.5" gradientUnits="userSpaceOnUse">
<stop stop-color="#E58200"/>
<stop offset="1" stop-color="#B15900"/>
</linearGradient>
<linearGradient id="paint7_linear_103_2" x1="1861.47" y1="205.604" x2="1861.47" y2="1047.9" gradientUnits="userSpaceOnUse">
<stop/>
<stop offset="1" stop-color="#663C20"/>
</linearGradient>
<radialGradient id="paint8_radial_103_2" cx="0" cy="0" r="1" gradientUnits="userSpaceOnUse" gradientTransform="translate(-2841.83 4212.01) rotate(102.352) scale(5717.79 4116.8)">
<stop stop-color="#E88FA0"/>
<stop offset="0.550808" stop-color="#F25674"/>
<stop offset="1" stop-color="#EC1740"/>
</radialGradient>
<radialGradient id="paint9_radial_103_2" cx="0" cy="0" r="1" gradientUnits="userSpaceOnUse" gradientTransform="translate(-3153.79 3101.7) rotate(90) scale(2146.55 1938.82)">
<stop stop-color="#C4003A"/>
<stop offset="1" stop-color="#C40424" stop-opacity="0"/>
</radialGradient>
<radialGradient id="paint10_radial_103_2" cx="0" cy="0" r="1" gradientUnits="userSpaceOnUse" gradientTransform="translate(-2291.2 2342.85) rotate(90) scale(1553.94 1403.56)">
<stop stop-color="#944A09"/>
<stop offset="1" stop-color="#F2C04C" stop-opacity="0"/>
</radialGradient>
<radialGradient id="paint11_radial_103_2" cx="0" cy="0" r="1" gradientUnits="userSpaceOnUse" gradientTransform="translate(-1452.36 -3995.11) rotate(-140.295) scale(5342.16 4198.03)">
<stop stop-color="#F7D87A"/>
<stop offset="1" stop-color="#F2BF4C"/>
</radialGradient>
<radialGradient id="paint12_radial_103_2" cx="0" cy="0" r="1" gradientUnits="userSpaceOnUse" gradientTransform="translate(2232.01 -6985.06) rotate(-31.4422) scale(4859.68 4505.26)">
<stop stop-color="#F7D87A"/>
<stop offset="0.271235" stop-color="#FFD451"/>
<stop offset="1" stop-color="#F2C04C"/>
</radialGradient>
<radialGradient id="paint13_radial_103_2" cx="0" cy="0" r="1" gradientUnits="userSpaceOnUse" gradientTransform="translate(3192 1598.73) scale(5449.08)">
<stop stop-color="#F25674"/>
<stop offset="1" stop-color="#D82D4E"/>
</radialGradient>
<radialGradient id="paint14_radial_103_2" cx="0" cy="0" r="1" gradientUnits="userSpaceOnUse" gradientTransform="translate(3059 1194.1) scale(5623.96 5716.16)">
<stop stop-color="#4EA3F8"/>
<stop offset="1" stop-color="#0073E4"/>
</radialGradient>
<radialGradient id="paint15_radial_103_2" cx="0" cy="0" r="1" gradientUnits="userSpaceOnUse" gradientTransform="translate(3487 1379.78) scale(3640.23 3699.91)">
<stop stop-color="#FDE990"/>
<stop offset="1" stop-color="#FACE57"/>
</radialGradient>
<radialGradient id="paint16_radial_103_2" cx="0" cy="0" r="1" gradientUnits="userSpaceOnUse" gradientTransform="translate(3289.88 -2804.78) rotate(-88.8979) scale(3098.01 3118.14)">
<stop stop-color="#D27C12" stop-opacity="0.186216"/>
<stop offset="0.856313" stop-color="#D27C12" stop-opacity="0"/>
<stop offset="1" stop-color="#D27C12" stop-opacity="0.324547"/>
</radialGradient>
<linearGradient id="paint17_linear_103_2" x1="2390.66" y1="276.06" x2="2390.66" y2="2253.66" gradientUnits="userSpaceOnUse">
<stop/>
<stop offset="1" stop-color="#887133"/>
</linearGradient>
<linearGradient id="paint18_linear_103_2" x1="2032.82" y1="285.757" x2="2032.82" y2="1293.62" gradientUnits="userSpaceOnUse">
<stop stop-color="#E95050"/>
<stop offset="0.991026" stop-color="#E85B5B"/>
</linearGradient>
<radialGradient id="paint19_radial_103_2" cx="0" cy="0" r="1" gradientUnits="userSpaceOnUse" gradientTransform="translate(3448 1379.78) scale(3699.91)">
<stop stop-color="#FDE990"/>
<stop offset="1" stop-color="#FACE57"/>
</radialGradient>
<radialGradient id="paint20_radial_103_2" cx="0" cy="0" r="1" gradientUnits="userSpaceOnUse" gradientTransform="translate(3247.64 -2804.78) rotate(-88.8798) scale(3098.03 3169.24)">
<stop stop-color="#D27C12" stop-opacity="0.186216"/>
<stop offset="0.856313" stop-color="#D27C12" stop-opacity="0"/>
<stop offset="1" stop-color="#D27C12" stop-opacity="0.324547"/>
</radialGradient>
<linearGradient id="paint21_linear_103_2" x1="1367.48" y1="269.642" x2="1367.48" y2="2832.07" gradientUnits="userSpaceOnUse">
<stop stop-color="#EEB643"/>
<stop offset="1" stop-color="#FCE486"/>
</linearGradient>
<linearGradient id="paint22_linear_103_2" x1="1308.34" y1="270.06" x2="1308.34" y2="2730.95" gradientUnits="userSpaceOnUse">
<stop/>
<stop offset="1" stop-color="#887133"/>
</linearGradient>
<linearGradient id="paint23_linear_103_2" x1="783.846" y1="258.338" x2="643.348" y2="1517.37" gradientUnits="userSpaceOnUse">
<stop stop-color="#251C0C"/>
<stop offset="1"/>
</linearGradient>
<linearGradient id="paint24_linear_103_2" x1="810.367" y1="258.338" x2="669.868" y2="1517.37" gradientUnits="userSpaceOnUse">
<stop stop-color="#251C0C"/>
<stop offset="1"/>
</linearGradient>
</defs>
</svg>
